<svg xmlns="http://www.w3.org/2000/svg" width="512" height="512" viewBox="0 0 512 512" role="img" aria-label="NF">
  <defs>
    <linearGradient id="background" x1="76" y1="36" x2="436" y2="476" gradientUnits="userSpaceOnUse">
      <stop offset="0" stop-color="#252a36"/>
      <stop offset="1" stop-color="#11151d"/>
    </linearGradient>
    <filter id="softShadow" x="-20%" y="-20%" width="140%" height="140%">
      <feDropShadow dx="0" dy="18" stdDeviation="18" flood-color="#000000" flood-opacity="0.38"/>
    </filter>
  </defs>

  <rect x="36" y="36" width="440" height="440" rx="104" fill="url(#background)" filter="url(#softShadow)"/>
  <rect x="54" y="54" width="404" height="404" rx="88" fill="none" stroke="#6ce7ff" stroke-opacity="0.22" stroke-width="4"/>

  <g opacity="0.16" fill="#8beeff">
    <rect x="104" y="106" width="26" height="26" rx="7"/>
    <rect x="148" y="106" width="26" height="26" rx="7"/>
    <rect x="192" y="106" width="26" height="26" rx="7"/>
    <rect x="104" y="150" width="26" height="26" rx="7"/>
    <rect x="148" y="150" width="26" height="26" rx="7"/>
    <rect x="104" y="194" width="26" height="26" rx="7"/>

    <rect x="382" y="292" width="26" height="26" rx="7"/>
    <rect x="338" y="336" width="26" height="26" rx="7"/>
    <rect x="382" y="336" width="26" height="26" rx="7"/>
    <rect x="294" y="380" width="26" height="26" rx="7"/>
    <rect x="338" y="380" width="26" height="26" rx="7"/>
    <rect x="382" y="380" width="26" height="26" rx="7"/>
  </g>

  <path d="M72 364V148h52l100 136V148h58v216h-51L131 226v138H72Z" fill="#74e6ff"/>
  <path d="M306 364V148h135v49h-78v39h70v48h-70v80h-57Z" fill="#74e6ff"/>
  <path d="M72 364V148h52l100 136V148h58v216h-51L131 226v138H72Z" fill="none" stroke="#ffffff" stroke-opacity="0.22" stroke-width="2"/>
  <path d="M306 364V148h135v49h-78v39h70v48h-70v80h-57Z" fill="none" stroke="#ffffff" stroke-opacity="0.22" stroke-width="2"/>
</svg>
